<?xml version="1.0" encoding="UTF-8" standalone="no"?>
<!-- Created with Inkscape (http://www.inkscape.org/) -->
<svg
   xmlns:svg="http://www.w3.org/2000/svg"
   xmlns="http://www.w3.org/2000/svg"
   xmlns:xlink="http://www.w3.org/1999/xlink"
   version="1.0"
   width="125"
   height="142"
   id="svg2">
  <defs
     id="defs4" />
  <path
     d="M 62.43949,141.05364 C 118.29275,117.68265 123.71938,69.923736 123.71938,62.700389 L 123.71938,0.841356 L 1.14136,0.841356 L 1.14136,62.700389 C 1.14136,69.923736 6.59991,117.68265 62.43949,141.05364 z"
     id="path2604"
     style="fill:#ffffff;stroke:#000000;stroke-width:1.6827116;stroke-linecap:butt;stroke-linejoin:miter;stroke-miterlimit:3.864" />
  <path
     d="M 92.37627,40.417456 C 89.453186,38.684583 86.02164,37.68818 82.368925,37.68818 C 78.74357,37.68818 75.332546,38.673182 72.414021,40.387815 C 69.481816,42.116129 66.05255,43.110251 62.418075,43.110251 C 58.783601,43.110251 55.368016,42.109288 52.454052,40.394655 C 49.526407,38.666342 46.101701,37.660819 42.448985,37.660819 C 38.823631,37.660819 35.405765,38.636701 32.491801,40.355894 C 29.57784,42.070527 26.15997,43.050969 22.53006,43.050969 C 18.88646,43.050969 15.46404,42.065967 12.53183,40.337653 C 9.60875,38.62302 6.20456,37.642578 2.57009,37.642578 C 2.09127,37.642578 1.9499,37.68362 1.48932,37.715541 L 1.13819,37.738342 L 1.13819,62.700845 C 1.13819,69.924192 6.59674,117.68311 62.440876,141.0541 C 118.29413,117.68311 123.72076,69.924192 123.72076,62.700845 L 123.72076,37.788505 L 123.59308,37.752023 C 123.15986,37.724662 122.7312,37.706421 122.2843,37.706421 C 118.65895,37.706421 115.25248,38.691423 112.33396,40.410616 C 109.40632,42.13893 105.98617,43.123932 102.34714,43.123932 C 98.7081,43.123932 95.299355,42.13665 92.37627,40.417456 z"
     id="path2628"
     style="fill:#00518c;stroke:#000000;stroke-width:1.34525716;stroke-linecap:butt;stroke-linejoin:miter;stroke-miterlimit:3.864" />
  <use
     transform="translate(24.042255,69.359641)"
     id="use4531"
     xlink:href="#path2656" />
  <path
     d="M 62.427634,69.96569 C 68.593016,65.633506 74.79032,64.944916 80.618248,67.416542 C 85.456614,69.464069 88.840278,69.692079 93.400472,68.602192 L 99.643378,71.748726 L 101.09808,71.739606 C 101.49026,71.256225 102.0922,70.950692 102.78079,70.950692 C 103.971,70.950692 104.93776,71.862731 104.93776,72.989099 C 104.93776,74.115467 103.971,75.027506 102.78079,75.027506 C 102.10588,75.027506 101.49482,74.726533 101.10264,74.265953 L 99.643378,74.265953 L 99.643378,75.948665 L 101.09808,75.948665 C 101.49026,75.474405 102.0922,75.164311 102.78079,75.164311 C 103.971,75.164311 104.93776,76.080911 104.93776,77.202718 C 104.93776,78.333646 103.971,79.250245 102.78079,79.250245 C 102.10588,79.250245 101.49482,78.944712 101.10264,78.475012 L 99.643378,78.475012 L 99.643378,80.166844 L 101.10264,80.166844 C 101.49482,79.688024 102.10588,79.377931 102.79903,79.377931 C 103.98012,79.377931 104.956,80.29453 104.956,81.420898 C 104.956,82.547266 103.98012,83.463865 102.79903,83.463865 C 102.11044,83.463865 101.49938,83.162892 101.1072,82.693192 L 99.643378,82.693192 L 99.643378,84.385024 L 101.12088,84.385024 C 101.49938,83.901643 102.115,83.59155 102.80359,83.59155 C 103.9938,83.59155 104.956,84.508149 104.956,85.639077 C 104.956,86.765445 103.9938,87.677484 102.80359,87.677484 C 102.12868,87.677484 101.51306,87.376511 101.12088,86.906811 L 99.643378,86.906811 L 99.643378,88.598643 L 101.12088,88.598643 C 101.51306,88.119823 102.12868,87.80973 102.81271,87.80973 C 103.99836,87.80973 104.96512,88.721769 104.96512,89.848137 C 104.96512,90.983625 103.99836,91.891104 102.81271,91.891104 C 102.13324,91.891104 101.52674,91.594691 101.13,91.120431 L 99.643378,91.120431 L 99.643378,92.812263 L 101.13,92.812263 C 101.5313,92.333442 102.13324,92.027909 102.82183,92.027909 C 104.0166,92.027909 104.97881,92.939948 104.97881,94.066316 C 104.97881,95.197244 104.0166,96.109283 102.82183,96.109283 C 102.15148,96.109283 101.5313,95.80831 101.14368,95.33861 L 99.643378,95.33861 L 99.643378,97.025882 L 101.14368,97.025882 C 101.5313,96.547062 102.15148,96.241529 102.83551,96.241529 C 104.0166,96.241529 104.98793,97.158128 104.98793,98.284496 C 104.98793,99.410864 104.0166,100.32746 102.83551,100.32746 C 102.15148,100.32746 101.54954,100.02193 101.14368,99.55223 L 99.643378,99.55223 C 96.090987,102.6258 92.351627,103.80233 88.024003,103.80233 C 84.407769,103.80233 82.259918,103.23687 79.947899,101.7092 C 76.131017,99.191974 71.465938,99.191974 67.722019,101.7092 C 68.524613,102.13786 69.067276,102.99518 69.067276,103.96194 C 69.067276,105.36648 67.927228,106.50653 66.522688,106.50653 L 58.332579,106.50653 C 56.928039,106.50653 55.787991,105.36648 55.787991,103.96194 C 55.787991,102.99518 56.330654,102.13786 57.133248,101.7092 C 53.389329,99.191974 48.71969,99.191974 44.907368,101.7092 C 42.595349,103.23687 40.447498,103.80233 36.831264,103.80233 C 32.50364,103.80233 28.75972,102.6258 25.20733,99.55223 L 23.71159,99.55223 C 23.31941,100.02193 22.70378,100.32746 22.01975,100.32746 C 20.8341,100.32746 19.86734,99.410864 19.86734,98.284496 C 19.86734,97.158128 20.8341,96.241529 22.01975,96.241529 C 22.71746,96.241529 23.31941,96.547062 23.71159,97.025882 L 25.20733,97.025882 L 25.20733,95.33861 L 23.71159,95.33861 C 23.31941,95.80831 22.71746,96.109283 22.03343,96.109283 C 20.83866,96.109283 19.88558,95.197244 19.88558,94.066316 C 19.88558,92.939948 20.83866,92.027909 22.03343,92.027909 C 22.72202,92.027909 23.33309,92.333442 23.72527,92.812263 L 25.20733,92.812263 L 25.20733,91.120431 L 23.72527,91.120431 C 23.33309,91.594691 22.72202,91.891104 22.04711,91.891104 C 20.8569,91.891104 19.89014,90.983625 19.89014,89.848137 C 19.89014,88.721769 20.8569,87.80973 22.04711,87.80973 C 22.72658,87.80973 23.33765,88.119823 23.72983,88.598643 L 25.20733,88.598643 L 25.20733,86.906811 L 23.73439,86.906811 C 23.34221,87.376511 22.74026,87.677484 22.05167,87.677484 C 20.86146,87.677484 19.89926,86.765445 19.89926,85.639077 C 19.89926,84.508149 20.86146,83.59155 22.05167,83.59155 C 22.74026,83.59155 23.35589,83.901643 23.74807,84.385024 L 25.20733,84.385024 L 25.20733,82.693192 L 23.74807,82.693192 C 23.35589,83.162892 22.74026,83.463865 22.05624,83.463865 C 20.87058,83.463865 19.91294,82.547266 19.91294,81.420898 C 19.91294,80.29453 20.87058,79.377931 22.05624,79.377931 C 22.75394,79.377931 23.36045,79.688024 23.75263,80.166844 L 25.20733,80.166844 L 25.20733,78.475012 L 23.75263,78.475012 C 23.36045,78.944712 22.75394,79.250245 22.06992,79.250245 C 20.88427,79.250245 19.9175,78.333646 19.9175,77.202718 C 19.9175,76.080911 20.88427,75.164311 22.06992,75.164311 C 22.7585,75.164311 23.36501,75.474405 23.76175,75.948665 L 25.20733,75.948665 L 25.20733,74.265953 L 23.75263,74.265953 C 23.36045,74.726533 22.75394,75.027506 22.06992,75.027506 C 20.88427,75.027506 19.9175,74.115467 19.9175,72.989099 C 19.9175,71.862731 20.88427,70.950692 22.06992,70.950692 C 22.7585,70.950692 23.36501,71.256225 23.76175,71.739606 L 25.20733,71.748726 L 31.4548,68.602192 C 36.014989,69.692079 39.398653,69.464069 44.237019,67.416542 C 50.064947,64.944916 56.262251,65.633506 62.427634,69.96569"
     id="path2640"
     style="fill:#ffffff;fill-rule:nonzero;stroke:none" />
  <path
     d="M 94.131927,69.371497 L 94.131927,96.896829 C 90.278563,98.944356 87.072747,99.655746 81.025929,96.509212 C 73.99867,92.870177 66.71148,95.163955 62.429458,99.477898 C 58.147435,95.163955 50.855685,92.870177 43.828426,96.509212 C 37.781608,99.655746 34.580352,98.944356 30.72243,96.896829 L 30.72243,69.371497 M 62.429458,69.964322 L 62.429458,103.86937 M 59.150678,103.86937 L 65.717358,103.86937 M 62.429458,69.964322 C 68.59484,65.632138 74.792144,64.943548 80.620072,67.415174 C 85.458438,69.462701 88.842102,69.690711 93.402296,68.600824 L 99.640642,71.751918 L 101.09534,71.738238 C 101.49208,71.259417 102.09403,70.949324 102.78262,70.949324 C 103.96827,70.949324 104.93959,71.861363 104.93959,72.992291 C 104.93959,74.118659 103.96827,75.030698 102.78262,75.030698 C 102.10315,75.030698 101.49664,74.729725 101.0999,74.264585 L 99.640642,74.264585 L 99.640642,75.951857 L 101.09534,75.951857 C 101.49208,75.473037 102.09403,75.167504 102.78262,75.167504 C 103.96827,75.167504 104.93959,76.079542 104.93959,77.20591 C 104.93959,78.336839 103.96827,79.248877 102.78262,79.248877 C 102.10315,79.248877 101.49664,78.947905 101.0999,78.478205 L 99.640642,78.478205 L 99.640642,80.165476 L 101.0999,80.165476 C 101.49664,79.686656 102.10315,79.376563 102.80086,79.376563 C 103.98195,79.376563 104.95327,80.293162 104.95327,81.41953 C 104.95327,82.545898 103.98195,83.462497 102.80086,83.462497 C 102.10771,83.462497 101.5012,83.161524 101.10902,82.691824 L 99.640642,82.691824 L 99.640642,84.383656 L 101.11815,84.383656 C 101.5012,83.900275 102.11683,83.594742 102.80542,83.594742 C 103.99107,83.594742 104.95327,84.506781 104.95327,85.637709 C 104.95327,86.764077 103.99107,87.676116 102.80542,87.676116 C 102.12595,87.676116 101.51488,87.375143 101.11815,86.905443 L 99.640642,86.905443 L 99.640642,88.597275 L 101.11815,88.597275 C 101.51488,88.118455 102.12595,87.808362 102.80998,87.808362 C 104.00019,87.808362 104.96695,88.720401 104.96695,89.851329 C 104.96695,90.982257 104.00019,91.894296 102.80998,91.894296 C 102.13507,91.894296 101.524,91.593323 101.13183,91.123623 L 99.640642,91.123623 L 99.640642,92.815455 L 101.13183,92.815455 C 101.52856,92.332074 102.13507,92.026541 102.82366,92.026541 C 104.01843,92.026541 104.97607,92.93858 104.97607,94.064948 C 104.97607,95.195876 104.01843,96.112475 102.82366,96.112475 C 102.14875,96.112475 101.52856,95.806942 101.14095,95.337242 L 99.640642,95.337242 L 99.640642,97.024514 L 101.14095,97.024514 C 101.52856,96.545694 102.14875,96.240161 102.83278,96.240161 C 104.01843,96.240161 104.98975,97.15676 104.98975,98.283128 C 104.98975,99.409496 104.01843,100.3261 102.83278,100.3261 C 102.14875,100.3261 101.5468,100.02512 101.14095,99.550862 L 99.640642,99.550862 C 96.08825,102.62443 92.353451,103.80096 88.025827,103.80096 C 84.409593,103.80096 82.261742,103.2355 79.949723,101.70783 C 76.128281,99.190606 71.467762,99.190606 67.723843,101.70783 C 68.521877,102.13649 69.0691,102.99381 69.0691,103.96057 C 69.0691,105.36511 67.924492,106.50516 66.524512,106.50516 L 58.329843,106.50516 C 56.929864,106.50516 55.789815,105.36511 55.789815,103.96057 C 55.789815,102.99381 56.332478,102.13649 57.130512,101.70783 C 53.391153,99.190606 48.721514,99.190606 44.909192,101.70783 C 42.597173,103.2355 40.444762,103.80096 36.833088,103.80096 C 32.500904,103.80096 28.76154,102.62443 25.20915,99.550862 L 23.71341,99.550862 C 23.32123,100.02512 22.70561,100.3261 22.02158,100.3261 C 20.83593,100.3261 19.86461,99.409496 19.86461,98.283128 C 19.86461,97.15676 20.83593,96.240161 22.02158,96.240161 C 22.71929,96.240161 23.32123,96.545694 23.71341,97.024514 L 25.20915,97.024514 L 25.20915,95.337242 L 23.71341,95.337242 C 23.32123,95.806942 22.71929,96.112475 22.03526,96.112475 C 20.84049,96.112475 19.88285,95.195876 19.88285,94.064948 C 19.88285,92.93858 20.84049,92.026541 22.03526,92.026541 C 22.72385,92.026541 23.33035,92.332074 23.72709,92.815455 L 25.20915,92.815455 L 25.20915,91.123623 L 23.72709,91.123623 C 23.33035,91.593323 22.72385,91.894296 22.04438,91.894296 C 20.85873,91.894296 19.88741,90.982257 19.88741,89.851329 C 19.88741,88.720401 20.85873,87.808362 22.04438,87.808362 C 22.72841,87.808362 23.33491,88.118455 23.73165,88.597275 L 25.20915,88.597275 L 25.20915,86.905443 L 23.73621,86.905443 C 23.34403,87.375143 22.74209,87.676116 22.04894,87.676116 C 20.86329,87.676116 19.90109,86.764077 19.90109,85.637709 C 19.90109,84.506781 20.86329,83.594742 22.04894,83.594742 C 22.74209,83.594742 23.35315,83.900275 23.74989,84.383656 L 25.20915,84.383656 L 25.20915,82.691824 L 23.74989,82.691824 C 23.35315,83.161524 22.74209,83.462497 22.05806,83.462497 C 20.86785,83.462497 19.91477,82.545898 19.91477,81.41953 C 19.91477,80.293162 20.86785,79.376563 22.05806,79.376563 C 22.75121,79.376563 23.36227,79.686656 23.75445,80.165476 L 25.20915,80.165476 L 25.20915,78.478205 L 23.75445,78.478205 C 23.36227,78.947905 22.75121,79.248877 22.06718,79.248877 C 20.88609,79.248877 19.91933,78.336839 19.91933,77.20591 C 19.91933,76.079542 20.88609,75.167504 22.06718,75.167504 C 22.75577,75.167504 23.36683,75.473037 23.75901,75.951857 L 25.20915,75.951857 L 25.20915,74.264585 L 23.75445,74.264585 C 23.36227,74.729725 22.75121,75.030698 22.06718,75.030698 C 20.88609,75.030698 19.91933,74.118659 19.91933,72.992291 C 19.91933,71.861363 20.88609,70.949324 22.06718,70.949324 C 22.75577,70.949324 23.36683,71.259417 23.75901,71.738238 L 25.20915,71.751918 L 31.45206,68.600824 C 36.012253,69.690711 39.395917,69.462701 44.234283,67.415174 C 50.062211,64.943548 56.264075,65.632138 62.429458,69.964322 z"
     id="path2644"
     style="fill:none;stroke:#000000;stroke-width:1.34525716;stroke-linecap:round;stroke-linejoin:miter;stroke-miterlimit:3.864" />
  <path
     d="M 96.796905,70.420798 L 96.796905,98.406709 C 91.210667,101.91806 85.811397,102.0503 81.155439,99.414512 C 75.131422,96.012607 66.840989,96.245177 62.426722,103.86982 C 58.012454,96.245177 49.717461,96.012607 43.698004,99.414512 C 39.042046,102.0503 33.638216,101.91806 28.05198,98.406709 L 28.05198,70.420798"
     id="path2648"
     style="fill:none;stroke:#000000;stroke-width:1.29509521;stroke-linecap:round;stroke-linejoin:bevel;stroke-miterlimit:3.864" />
  <path
     d="M 38.371698,43.203735 L 40.756679,50.687014 L 48.709658,50.687014 L 42.170339,55.397694 L 44.53708,62.82625 L 38.371698,58.170292 L 32.219996,62.82625 L 34.577616,55.397694 L 28.03374,50.687014 L 35.986716,50.687014 L 38.371698,43.203735 z"
     id="path2656"
     style="fill:#ffffff;stroke:#000000;stroke-width:1.2266922;stroke-linecap:butt;stroke-linejoin:miter;stroke-miterlimit:3.864" />
  <use
     transform="translate(48.076302,0)"
     id="use4529"
     xlink:href="#path2656" />
  <g
     transform="translate(131.82035,35.19407)"
     id="g4559">
    <path
       d="M -112.37116,-25.119233 C -110.14578,-27.736785 -107.23638,-28.010396 -105.91848,-28.078799 C -96.497124,-28.366091 -91.70892,-21.316031 -91.93237,-15.679631 C -92.160379,-9.2406373 -97.039787,-7.7357732 -97.701015,-7.5533654 C -97.701015,-7.5533654 -97.783099,-6.157946 -96.693212,-4.2791461 C -96.624809,-4.1469004 -96.40136,-3.9781733 -96.611129,-3.6133577 C -96.64761,-3.5358344 -96.839139,-3.1892597 -96.88018,-3.125417 C -96.930342,-3.0661344 -97.016986,-2.8654859 -96.948583,-2.6237956 C -96.830018,-2.2042577 -96.980505,-1.7026364 -97.295158,-1.1280519 C -97.527728,-0.60362961 -97.258676,0.7005859 -97.121871,1.5807034 C -97.09907,1.7676713 -97.235875,1.7722315 -97.35444,1.6399859 C -97.956386,1.2523694 -98.407845,0.053038338 -98.558332,-0.62187039 C -99.707501,-0.31633739 -101.0254,1.3663742 -101.4723,2.346816 C -101.51334,2.4836218 -101.75503,2.6341082 -101.80519,2.324015 C -101.81431,2.2464917 -102.04688,0.35401115 -100.21368,-1.0186073 C -101.13484,-1.3150199 -102.10616,-0.85900049 -102.75371,-0.50786554 C -102.79931,-0.4622636 -103.07748,-0.34369855 -102.87684,-0.63555097 C -102.83579,-0.70395389 -102.30225,-1.9032849 -99.857987,-2.2498597 C -99.826066,-2.3319432 -99.310764,-3.1390975 -99.096435,-3.7638441 C -99.160277,-4.675883 -99.634538,-5.8250519 -100.21368,-6.8966975 C -100.30945,-6.8921373 -102.05144,-6.7462111 -103.27357,-5.7976907 C -103.35566,-5.7475286 -103.50614,-5.5833616 -103.50614,-5.3416713 L -103.50614,-4.8126888 C -103.49702,-4.7442859 -103.60647,-4.2563451 -104.23577,-4.0511364 C -104.29506,-4.0055344 -106.3517,-3.3534267 -107.33215,-2.8837267 C -107.38687,-2.8426849 -108.26698,-2.4550684 -108.91909,-1.5430296 C -109.0559,-1.3925432 -109.58032,-0.58994903 -110.33275,-0.34369855 C -110.51516,-0.29809661 -110.9119,-0.11112865 -111.20831,0.18072377 C -111.50016,0.468016 -111.76921,0.75986843 -112.0109,0.91947522 C -112.25715,1.0745218 -112.81806,1.6764674 -113.2148,2.5064228 C -113.27408,2.6204276 -113.3972,2.770914 -113.40176,2.5064228 C -113.42912,2.1644082 -113.37896,1.73575 -113.3972,1.7311898 C -113.15551,0.68690532 -112.68581,0.15336261 -112.27084,-0.29809661 C -112.43956,-0.34825874 -112.40764,-0.31633739 -112.58093,-0.40754127 C -113.33336,-0.31633739 -115.69554,-0.53066651 -117.1092,0.162483 C -117.20953,0.21720533 -117.32353,0.19896455 -117.20953,0.043917949 C -116.94959,-0.31177719 -116.42517,-1.6752752 -113.24216,-1.7527985 C -113.19199,-2.0537713 -114.66494,-2.7697218 -115.39457,-2.7697218 C -115.64082,-2.7697218 -115.49945,-2.8974073 -115.39457,-2.9338888 C -115.23496,-3.0114121 -113.83042,-3.6133577 -112.17507,-2.5325917 C -112.10667,-2.5827539 -110.9803,-2.9886111 -110.35099,-3.0433335 C -109.58032,-3.6133577 -107.87481,-5.3234305 -107.19078,-5.5879218 C -107.19078,-5.6928062 -107.25006,-6.0576218 -107.16798,-6.4269975 L -107.25006,-6.4452383 C -108.14386,-7.7038519 -108.27611,-9.564411 -108.23962,-10.590455 C -110.07282,-10.763742 -112.02458,-12.391731 -113.06431,-13.718748 C -114.40045,-13.809952 -117.02712,-14.94088 -118.44534,-17.786441 C -123.24722,-14.329814 -126.38008,-8.1735518 -126.55336,-7.8908198 C -126.67193,-7.8041761 -126.72665,-7.8041761 -126.82241,-7.872579 C -127.34228,-8.8256596 -127.44716,-10.284922 -127.27387,-10.740941 C -126.33447,-13.285529 -124.12278,-16.787759 -121.70132,-19.897811 C -122.61336,-25.142034 -117.78867,-26.879468 -115.91899,-26.815625 C -113.97179,-26.770023 -112.60829,-25.51141 -112.37116,-25.119233"
       id="path2676"
       style="fill:#000000;fill-rule:nonzero;stroke:none" />
    <path
       d="M -112.75378,-22.770277 C -112.75378,-22.770277 -110.46,-26.509636 -107.51412,-26.59628 C -108.34863,-25.802806 -108.52648,-25.269264 -108.52648,-25.269264 L -108.5128,-25.077735 C -108.5128,-25.077735 -107.19034,-26.468595 -104.57279,-26.468595 C -105.49851,-25.825607 -105.88157,-25.18262 -105.88157,-25.18262 L -105.85876,-25.086856 C -105.91805,-24.936369 -104.07573,-26.304428 -101.25753,-25.18262 C -101.88684,-25.141578 -102.87184,-24.71748 -102.97216,-24.443868 C -103.07705,-24.357225 -102.9676,-24.357225 -102.9676,-24.357225 C -99.561137,-24.790443 -96.514927,-21.114927 -96.57877,-17.722142 C -96.683654,-15.282438 -98.325324,-12.760651 -101.52658,-12.02646 C -101.96436,-11.502038 -102.63015,-9.4590706 -102.63015,-9.4590706 C -104.16237,-8.9574492 -106.02293,-7.6076318 -106.28742,-7.3157793 C -106.28742,-7.3157793 -106.31022,-7.3933026 -106.31022,-7.3020987 L -106.44247,-7.4845065 C -107.00793,-8.4467075 -107.00793,-11.415394 -107.03985,-11.761969 C -110.33232,-11.456436 -112.17463,-14.548247 -112.58961,-14.85378 C -116.28793,-15.09091 -117.89768,-19.268048 -118.18497,-19.486937 C -120.97125,-17.785985 -123.7028,-14.329358 -125.60441,-11.629723 C -125.5588,-11.725487 -125.64545,-11.693566 -125.60441,-11.78477 C -123.4976,-16.144315 -121.03965,-18.292167 -120.29634,-19.678466 C -121.90153,-23.162454 -117.70159,-25.729843 -115.83191,-25.442551 C -113.26452,-25.442551 -112.75378,-22.770277 -112.75378,-22.770277"
       id="path2680"
       style="fill:#ffffff;fill-rule:nonzero;stroke:none" />
    <path
       d="M -119.54391,-21.104438 C -119.54391,-21.537657 -119.19277,-21.888792 -118.75499,-21.888792 C -118.32634,-21.888792 -117.9752,-21.537657 -117.9752,-21.104438 C -117.9752,-20.67122 -118.32634,-20.320085 -118.75499,-20.320085 C -119.19277,-20.320085 -119.54391,-20.67122 -119.54391,-21.104438 z"
       id="path2684"
       style="fill:#000000;fill-rule:nonzero;stroke:none" />
  </g>
  <use
     transform="translate(39.757122,0)"
     id="use4564"
     xlink:href="#g4559" />
  <use
     transform="translate(79.272651,0)"
     id="use4566"
     xlink:href="#g4559" />
</svg>
